<?xml version="1.0" encoding="utf-8"?>
<!-- Generator: Adobe Illustrator 27.4.1, SVG Export Plug-In . SVG Version: 6.00 Build 0)  -->
<svg version="1.1" xmlns="http://www.w3.org/2000/svg" xmlns:xlink="http://www.w3.org/1999/xlink" x="0px" y="0px"
	 viewBox="0 0 107.6 297.2" style="enable-background:new 0 0 107.6 297.2;" xml:space="preserve">
<style type="text/css">
	.st0{fill:#6D6B6E;}
	.st1{opacity:0.55;fill:none;stroke:#212121;stroke-width:0.75;stroke-miterlimit:10;}
	.st2{fill:#FFFFFF;}
	.st3{fill:#CE1A11;}
</style>
<g id="Layer_2">
</g>
<g id="Layer_1">
</g>
<g id="Layer_3">
	<g>
		<path class="st0" d="M59.9,10.2c0,0-8.9-6.4-17.6,3.1c0,0-23.6,20.8-23.6,51.8v200.2c0,0,2.4,8.2,6.2,12.9
			c3.8,4.7,7.1,8.2,7.1,8.2h43.1c0,0,10.8-9.9,12.3-20.2V65C87.4,65,89.8,34.5,59.9,10.2z M79.3,220.1H27.2V58.2h52.1V220.1z"/>
		<path class="st1" d="M74.3,55.9H31.9V37.8c0-2.8,2.3-5.1,5.1-5.1h32.3c2.7,0,5,2.2,5,5V55.9z"/>
		<rect x="32.3" y="221.6" class="st1" width="42.6" height="24"/>
		<polygon class="st1" points="74.9,272.9 72.3,277 34.6,277 31.7,273.2 27.9,267.3 27.9,221.6 79,221.6 79,265.5 		"/>
		<g>
			<rect x="19" y="65.5" class="st2" width="5" height="5.8"/>
			<rect x="19" y="65.5" class="st3" width="0.9" height="5.8"/>
			<rect x="23.1" y="65.5" class="st3" width="0.9" height="5.8"/>
			<rect x="20.6" y="65.5" class="st3" width="1.6" height="5.8"/>
		</g>
		<g>
			<rect x="81.9" y="65.5" class="st2" width="5" height="5.8"/>
			<rect x="81.9" y="65.5" class="st3" width="0.9" height="5.8"/>
			<rect x="86.1" y="65.5" class="st3" width="0.9" height="5.8"/>
			<rect x="83.6" y="65.5" class="st3" width="1.6" height="5.8"/>
		</g>
		<g>
			<rect x="19" y="140.8" class="st2" width="5" height="5.8"/>
			<rect x="19" y="140.8" class="st3" width="0.9" height="5.8"/>
			<rect x="23.1" y="140.8" class="st3" width="0.9" height="5.8"/>
			<rect x="20.6" y="140.8" class="st3" width="1.6" height="5.8"/>
		</g>
		<g>
			<rect x="81.9" y="140.8" class="st2" width="5" height="5.8"/>
			<rect x="81.9" y="140.8" class="st3" width="0.9" height="5.8"/>
			<rect x="86.1" y="140.8" class="st3" width="0.9" height="5.8"/>
			<rect x="83.6" y="140.8" class="st3" width="1.6" height="5.8"/>
		</g>
		<g>
			<rect x="19" y="231.6" class="st2" width="5" height="5.8"/>
			<rect x="19" y="231.6" class="st3" width="0.9" height="5.8"/>
			<rect x="23.1" y="231.6" class="st3" width="0.9" height="5.8"/>
			<rect x="20.6" y="231.6" class="st3" width="1.6" height="5.8"/>
		</g>
		<g>
			<rect x="81.9" y="231.6" class="st2" width="5" height="5.8"/>
			<rect x="81.9" y="231.6" class="st3" width="0.9" height="5.8"/>
			<rect x="86.1" y="231.6" class="st3" width="0.9" height="5.8"/>
			<rect x="83.6" y="231.6" class="st3" width="1.6" height="5.8"/>
		</g>
	</g>
</g>
</svg>
